<?xml version="1.0" encoding="UTF-8" standalone="no"?>
<!-- Created with Inkscape (http://www.inkscape.org/) -->

<svg
   xmlns:osb="http://www.openswatchbook.org/uri/2009/osb"
   xmlns:dc="http://purl.org/dc/elements/1.1/"
   xmlns:cc="http://creativecommons.org/ns#"
   xmlns:rdf="http://www.w3.org/1999/02/22-rdf-syntax-ns#"
   xmlns:svg="http://www.w3.org/2000/svg"
   xmlns="http://www.w3.org/2000/svg"
   xmlns:xlink="http://www.w3.org/1999/xlink"
   xmlns:sodipodi="http://sodipodi.sourceforge.net/DTD/sodipodi-0.dtd"
   xmlns:inkscape="http://www.inkscape.org/namespaces/inkscape"
   width="96"
   height="96"
   id="svg2"
   version="1.1"
   inkscape:version="0.48.3.1 r9886"
   sodipodi:docname="lock.svg">
  <defs
     id="defs4">
    <linearGradient
       id="linearGradient3832"
       osb:paint="gradient">
      <stop
         style="stop-color:#000000;stop-opacity:1;"
         offset="0"
         id="stop3834" />
      <stop
         style="stop-color:#000000;stop-opacity:0;"
         offset="1"
         id="stop3836" />
    </linearGradient>
    <linearGradient
       id="linearGradient3765">
      <stop
         style="stop-color:#9b9b9b;stop-opacity:1;"
         offset="0"
         id="stop3767" />
      <stop
         id="stop3773"
         offset="0.5"
         style="stop-color:#dadada;stop-opacity:1;" />
      <stop
         style="stop-color:#9b9b9b;stop-opacity:1;"
         offset="1"
         id="stop3769" />
    </linearGradient>
    <linearGradient
       inkscape:collect="always"
       xlink:href="#linearGradient3765-3"
       id="linearGradient3771-3"
       x1="4"
       y1="48"
       x2="92"
       y2="48"
       gradientUnits="userSpaceOnUse" />
    <linearGradient
       id="linearGradient3765-3">
      <stop
         style="stop-color:#9b9b9b;stop-opacity:1;"
         offset="0"
         id="stop3767-8" />
      <stop
         id="stop3773-4"
         offset="0.5"
         style="stop-color:#dadada;stop-opacity:1;" />
      <stop
         style="stop-color:#9b9b9b;stop-opacity:1;"
         offset="1"
         id="stop3769-4" />
    </linearGradient>
    <filter
       id="filter3917"
       inkscape:label="Darken edges"
       inkscape:menu="Shadows and Glows"
       inkscape:menu-tooltip="Darken the edges with an inner blur"
       color-interpolation-filters="sRGB">
      <feGaussianBlur
         id="feGaussianBlur3919"
         result="result6"
         stdDeviation="1.5" />
      <feComposite
         id="feComposite3921"
         in2="result6"
         operator="atop"
         in="SourceGraphic"
         result="result8" />
      <feComposite
         id="feComposite3923"
         in2="SourceAlpha"
         in="result8"
         operator="atop"
         result="result9" />
    </filter>
    <filter
       id="filter4013"
       inkscape:label="Darken edges"
       inkscape:menu="Shadows and Glows"
       inkscape:menu-tooltip="Darken the edges with an inner blur"
       color-interpolation-filters="sRGB">
      <feGaussianBlur
         id="feGaussianBlur4015"
         result="result6"
         stdDeviation="1.5" />
      <feComposite
         id="feComposite4017"
         in2="result6"
         operator="atop"
         in="SourceGraphic"
         result="result8" />
      <feComposite
         id="feComposite4019"
         in2="SourceAlpha"
         in="result8"
         operator="atop"
         result="result9" />
    </filter>
    <filter
       id="filter4135"
       inkscape:label="Darken edges"
       inkscape:menu="Shadows and Glows"
       inkscape:menu-tooltip="Darken the edges with an inner blur"
       color-interpolation-filters="sRGB">
      <feGaussianBlur
         id="feGaussianBlur4137"
         result="result6"
         stdDeviation="6.8156020942408375" />
      <feComposite
         id="feComposite4139"
         in2="result6"
         operator="atop"
         in="SourceGraphic"
         result="result8" />
      <feComposite
         id="feComposite4141"
         in2="SourceAlpha"
         in="result8"
         operator="atop"
         result="result9" />
    </filter>
    <filter
       id="filter4217"
       inkscape:menu-tooltip="Draws a black outline around"
       inkscape:menu="ABCs"
       inkscape:label="Black outline"
       color-interpolation-filters="sRGB">
      <feGaussianBlur
         id="feGaussianBlur4219"
         stdDeviation="1"
         in="SourceAlpha"
         result="result0" />
      <feComposite
         id="feComposite4221"
         in2="result0"
         result="result3"
         operator="arithmetic"
         in="SourceGraphic"
         k2="1"
         k3="10" />
      <feComposite
         id="feComposite4223"
         in2="result3"
         k2="1"
         operator="in"
         in="result3"
         result="result4" />
    </filter>
  </defs>
  <sodipodi:namedview
     id="base"
     pagecolor="#ffffff"
     bordercolor="#666666"
     borderopacity="1.0"
     inkscape:pageopacity="0.0"
     inkscape:pageshadow="2"
     inkscape:zoom="7.9195959"
     inkscape:cx="16.111049"
     inkscape:cy="49.662995"
     inkscape:document-units="px"
     inkscape:current-layer="layer1"
     showgrid="true"
     inkscape:object-nodes="true"
     inkscape:window-width="1920"
     inkscape:window-height="1150"
     inkscape:window-x="0"
     inkscape:window-y="0"
     inkscape:window-maximized="1">
    <inkscape:grid
       type="xygrid"
       id="grid2985"
       empspacing="8"
       visible="true"
       enabled="true"
       snapvisiblegridlinesonly="true"
       spacingx="4px"
       spacingy="4px" />
  </sodipodi:namedview>
  <metadata
     id="metadata7">
    <rdf:RDF>
      <cc:Work
         rdf:about="">
        <dc:format>image/svg+xml</dc:format>
        <dc:type
           rdf:resource="http://purl.org/dc/dcmitype/StillImage" />
        <dc:title></dc:title>
      </cc:Work>
    </rdf:RDF>
  </metadata>
  <g
     inkscape:label="Layer 1"
     inkscape:groupmode="layer"
     id="layer1"
     transform="translate(0,-956.36218)">
    <path
       style="fill-opacity:1;fill:#616161"
       d="M 12 4 C 7.568 4 4 7.568 4 12 L 4 84 C 4 88.432 7.568 92 12 92 L 84 92 C 88.432 92 92 88.432 92 84 L 92 12 C 92 7.568 88.432 4 84 4 L 12 4 z M 48 12 C 65.999994 12 66 30 66 30 L 66 34.5 L 70.5 34.5 C 72.992999 34.5 75 36.507 75 39 L 75 79.5 C 75 81.993 72.992999 84 70.5 84 L 25.5 84 C 23.006999 84 21 81.993 21 79.5 L 21 39 C 21 36.507 23.006999 34.5 25.5 34.5 L 30 34.5 L 30 30 C 30 30 30.000005 12 48 12 z M 48 16.5 C 34.500004 16.5 34.5 30 34.5 30 L 34.5 34.5 L 61.5 34.5 L 61.5 30 C 61.5 30 61.499995 16.5 48 16.5 z M 48.28125 42.09375 C 47.519526 42.09375 46.87304 42.34771 46.375 42.875 C 45.876948 43.4024 45.624997 44.0176 45.625 44.75 C 45.624997 45.4824 45.843745 46.12895 46.3125 46.65625 C 46.810541 47.18365 47.457026 47.4375 48.21875 47.4375 C 48.98046 47.4375 49.626944 47.1856 50.125 46.6875 C 50.652332 46.1602 50.874989 45.5118 50.875 44.75 C 50.874989 44.0176 50.652332 43.4024 50.125 42.875 C 49.626944 42.34771 49.013663 42.09375 48.28125 42.09375 z M 50.4375 53.59375 L 41.75 54.09375 L 41.75 56 L 44.09375 56 C 44.5332 56 44.890621 56.067 45.125 56.125 C 45.388667 56.1836 45.572262 56.29305 45.71875 56.46875 C 45.865224 56.61535 45.93944 56.8653 45.96875 57.1875 C 46.027338 57.4806 46.062495 57.84575 46.0625 58.34375 L 46.0625 71.15625 C 46.062495 71.62505 46.02538 72.0196 45.9375 72.3125 C 45.878901 72.5762 45.732418 72.8243 45.46875 73 C 45.234371 73.1465 44.874996 73.22225 44.40625 73.28125 C 43.966794 73.31125 43.388669 73.34375 42.65625 73.34375 L 42.3125 73.34375 L 42.3125 75 L 54.25 75 L 54.25 73.34375 L 53.9375 73.34375 C 53.175769 73.34375 52.531238 73.31025 52.0625 73.28125 C 51.623036 73.22265 51.294911 73.1465 51.03125 73 C 50.796864 72.8243 50.61913 72.5762 50.53125 72.3125 C 50.443351 72.0196 50.437491 71.62505 50.4375 71.15625 L 50.4375 53.59375 z "
       id="rect2995"
       transform="translate(0,956.36218)" />
  </g>
</svg>
